<svg xmlns="http://www.w3.org/2000/svg" width="512" height="512" viewBox="0 0 512 512" version="1.1"><path d="" stroke="none" fill="#080404" fill-rule="evenodd"/><path d="M 150.762 75.338 C 93.706 106.227, 47.019 131.744, 47.012 132.042 C 46.994 132.875, 119.996 172.175, 120.896 171.816 C 126.039 169.763, 328.886 59.263, 328.687 58.623 C 328.332 57.479, 257.224 18.973, 255.679 19.088 C 255.031 19.136, 207.818 44.448, 150.762 75.338 M 237.232 121.336 C 179.901 152.321, 132.782 177.885, 132.522 178.145 C 131.759 178.907, 174.303 201.500, 176.500 201.500 C 177.600 201.500, 225.158 176.300, 282.185 145.500 C 358.877 104.079, 385.562 89.217, 384.685 88.412 C 383.677 87.486, 342.403 65, 341.712 65 C 341.579 65, 294.563 90.351, 237.232 121.336 M 293.523 151.584 C 236.335 182.538, 189.435 208.232, 189.301 208.682 C 189.041 209.552, 254.150 245, 256.009 245 C 257.412 245, 465 132.817, 465 132.059 C 465 131.535, 436.491 115.919, 409.034 101.402 L 397.500 95.303 293.523 151.584 M 40.246 261.034 L 40.500 380.067 144.973 436.534 C 202.434 467.590, 249.796 493, 250.223 493 C 250.651 493, 251 439.496, 251 374.102 L 251 255.205 216.750 236.699 L 182.500 218.192 182 262.944 C 181.466 310.702, 181.433 311, 176.552 311 C 173.702 311, 172.441 309.520, 159.515 291 C 153.565 282.475, 148.058 274.755, 147.278 273.843 C 145.971 272.317, 144.829 272.532, 132.743 276.586 C 120.582 280.665, 119.458 280.875, 117.313 279.470 L 115 277.954 114.975 229.727 L 114.951 181.500 78.197 161.750 C 57.983 150.887, 41.117 142, 40.718 142 C 40.319 142, 40.106 195.565, 40.246 261.034 M 365.736 198.604 L 261 255.207 261 374.104 C 261 439.497, 261.360 493, 261.800 493 C 262.240 493, 309.602 467.593, 367.050 436.540 L 471.500 380.080 471.754 261.040 C 471.894 195.568, 471.663 142, 471.240 142 C 470.818 142, 423.341 167.472, 365.736 198.604 M 126 227.500 C 126 249.225, 126.362 267, 126.804 267 C 127.245 267, 132.287 265.424, 138.008 263.497 C 143.728 261.571, 149.143 260.228, 150.041 260.513 C 150.939 260.798, 155.909 266.987, 161.087 274.266 L 170.500 287.500 170.762 250.062 C 170.907 229.472, 170.682 212.295, 170.262 211.892 C 169.468 211.129, 126.955 188, 126.347 188 C 126.156 188, 126 205.775, 126 227.500 M 60.200 342.200 C 58.629 343.771, 58.660 348.475, 60.250 349.784 C 61.485 350.800, 125.975 385.913, 135.334 390.665 C 139.853 392.959, 140.327 393.016, 142.584 391.537 C 145.244 389.794, 145.922 384.977, 143.750 383.252 C 139.821 380.133, 65.753 341, 63.778 341 C 62.470 341, 60.860 341.540, 60.200 342.200 M 61.166 361.596 C 59.459 362.792, 58.964 363.982, 59.194 366.346 C 59.480 369.298, 60.460 370.027, 74.500 377.735 C 82.750 382.264, 90.480 385.977, 91.679 385.985 C 96.043 386.015, 98.405 381.230, 95.750 377.739 C 94.682 376.335, 65.472 360.039, 63.973 360.010 C 63.682 360.005, 62.420 360.718, 61.166 361.596" stroke="none" fill="#040404" fill-rule="evenodd"/></svg>