<svg xmlns="http://www.w3.org/2000/svg" width="512" height="512" viewBox="0 0 512 512" version="1.1"><path d="" stroke="none" fill="#080404" fill-rule="evenodd"/><path d="M 96 64 L 96 72 104 72 L 112 72 112 64 L 112 56 104 56 L 96 56 96 64 M 128 64 L 128 72 176 72 L 224 72 224 64 L 224 56 176 56 L 128 56 128 64 M 160 96 L 160 104 208 104 L 256 104 256 96 L 256 88 208 88 L 160 88 160 96 M 32 232 L 32 328 184 328 L 336 328 336 232 L 336 136 184 136 L 32 136 32 232 M 97.713 193.422 C 91.475 195.100, 86.122 199.523, 83.004 205.577 C 80.651 210.148, 80.479 211.536, 80.156 228.611 C 79.754 249.889, 80.722 256.169, 85.334 262.216 C 91.390 270.156, 103.677 273.662, 116.276 271.046 C 126.137 268.999, 133.638 261.227, 135.382 251.250 L 135.950 248 127.975 248 C 120.920 248, 120 248.211, 120 249.826 C 120 250.830, 118.958 252.630, 117.686 253.826 C 115.733 255.660, 114.196 256, 107.860 256 C 101.301 256, 100.073 255.706, 98.174 253.686 C 96.095 251.473, 96 250.516, 96 231.860 C 96 212.758, 96.049 212.303, 98.314 210.174 C 100.267 208.340, 101.804 208, 108.140 208 C 114.699 208, 115.927 208.294, 117.826 210.314 C 119.022 211.587, 120 213.387, 120 214.314 C 120 215.754, 121.163 216, 127.975 216 L 135.950 216 135.382 212.750 C 134.399 207.126, 130.545 200.636, 126.238 197.351 C 119.590 192.280, 107.931 190.675, 97.713 193.422 M 169.713 193.358 C 163.434 195.131, 158.103 199.560, 155.004 205.577 C 152.651 210.148, 152.479 211.536, 152.156 228.611 C 151.942 239.965, 152.251 248.894, 152.982 252.412 C 154.476 259.609, 159.021 265.620, 165.483 268.945 C 169.786 271.160, 171.717 271.500, 180 271.500 C 188.283 271.500, 190.214 271.160, 194.517 268.945 C 200.731 265.748, 205.485 259.627, 206.908 252.994 C 208.321 246.403, 208.321 217.597, 206.908 211.006 C 205.508 204.481, 200.754 198.264, 194.832 195.216 C 189.037 192.234, 176.877 191.335, 169.713 193.358 M 229.020 193.228 C 224.116 195.820, 223.970 197.045, 224.244 233.223 C 224.564 275.431, 222.401 271.500, 245.310 271.500 C 260.773 271.500, 261.799 271.377, 266.520 268.945 C 272.732 265.747, 277.486 259.626, 278.908 252.994 C 280.321 246.403, 280.321 217.597, 278.908 211.006 C 277.485 204.373, 272.732 198.253, 266.518 195.055 C 261.945 192.701, 260.371 192.477, 246.527 192.209 C 235.578 191.996, 230.827 192.273, 229.020 193.228 M 170.174 210.314 C 168.095 212.527, 168 213.484, 168 232.140 C 168 251.242, 168.049 251.697, 170.314 253.826 C 172.267 255.660, 173.804 256, 180.140 256 C 186.699 256, 187.927 255.706, 189.826 253.686 C 191.905 251.473, 192 250.516, 192 231.860 C 192 212.758, 191.951 212.303, 189.686 210.174 C 187.733 208.340, 186.196 208, 179.860 208 C 173.301 208, 172.073 208.294, 170.174 210.314 M 240 232 L 240 256 249.826 256 C 264.364 256, 264 256.620, 264 231.860 C 264 212.758, 263.951 212.303, 261.686 210.174 C 259.638 208.251, 258.254 208, 249.686 208 L 240 208 240 232 M 352 304.024 L 352 392.048 368.602 391.774 L 385.204 391.500 386.697 387.079 C 392.726 369.232, 411.967 357.730, 430.250 361.045 C 445.099 363.737, 456.709 373.472, 461.301 387.079 L 462.793 391.500 471.396 391.789 L 480 392.078 480 380.116 L 480 368.155 466.525 367.827 C 447.591 367.367, 448.500 368.569, 448.500 344 C 448.500 319.431, 447.591 320.633, 466.525 320.173 C 485.258 319.717, 485.068 319.013, 462.779 306.313 L 445.557 296.500 421.304 296 C 397.728 295.514, 396.988 295.436, 394.776 293.223 L 392.500 290.946 392.215 253.473 L 391.930 216 371.965 216 L 352 216 352 304.024 M 408 248 L 408 280 424 280 L 440 280 440 250.174 L 440 220.349 437.686 218.174 C 435.542 216.161, 434.361 216, 421.686 216 L 408 216 408 248 M 400 320 L 400 328 416 328 L 432 328 432 320 L 432 312 416 312 L 400 312 400 320 M 464 344 L 464 352 472 352 L 480 352 480 344 L 480 336 472 336 L 464 336 464 344 M 32 368.039 L 32 392.078 40.579 391.789 L 49.159 391.500 51.043 386.142 C 58.674 364.443, 84.844 354.320, 105.872 364.935 C 111.646 367.850, 120.080 375.887, 122.164 380.461 C 123.681 383.790, 124.182 383.675, 126.441 379.479 C 129.031 374.671, 136.688 367.699, 142.755 364.624 C 163.490 354.117, 189.827 364.959, 197.304 387.079 L 198.798 391.500 267.399 391.757 L 336 392.014 336 368.007 L 336 344 184 344 L 32 344 32 368.039 M 77.500 378.377 C 71.542 381.187, 68.826 383.952, 66.084 390 C 60.649 401.988, 65.740 416.176, 77.429 421.619 C 86.656 425.916, 99.345 423.789, 105.688 416.882 C 114.132 407.688, 113.730 390.438, 104.882 382.312 C 97.892 375.892, 86.301 374.227, 77.500 378.377 M 149.500 378.377 C 143.542 381.187, 140.826 383.952, 138.084 390 C 132.649 401.988, 137.740 416.176, 149.429 421.619 C 158.656 425.916, 171.345 423.789, 177.688 416.882 C 186.132 407.688, 185.730 390.438, 176.882 382.312 C 169.892 375.892, 158.301 374.227, 149.500 378.377 M 413.500 378.377 C 407.542 381.187, 404.826 383.952, 402.084 390 C 396.649 401.988, 401.740 416.176, 413.429 421.619 C 422.656 425.916, 435.345 423.789, 441.688 416.882 C 450.132 407.688, 449.730 390.438, 440.882 382.312 C 433.892 375.892, 422.301 374.227, 413.500 378.377 M 80 400 L 80 408 88 408 L 96 408 96 400 L 96 392 88 392 L 80 392 80 400 M 152 400 L 152 408 160 408 L 168 408 168 400 L 168 392 160 392 L 152 392 152 400 M 416 400 L 416 408 424 408 L 432 408 432 400 L 432 392 424 392 L 416 392 416 400 M 16 448 L 16 456 256 456 L 496 456 496 448 L 496 440 256 440 L 16 440 16 448" stroke="none" fill="#040404" fill-rule="evenodd"/></svg>