<svg width="20" height="20" viewBox="0 0 20 20" fill="none" xmlns="http://www.w3.org/2000/svg">
<path d="M1.06364 5.50914C2.70909 2.24092 6.09084 0 10 0C12.6954 0 14.959 0.99095 16.6909 2.60455L13.8227 5.47274C12.7864 4.48185 11.4681 3.97727 10 3.97727C7.39542 3.97727 5.19084 5.73637 4.40455 8.1C4.2045 8.7 4.09086 9.3409 4.09086 10C4.09086 10.6591 4.2045 11.3 4.40455 11.9C5.19084 14.2636 7.39542 16.0227 10 16.0227C11.3454 16.0227 12.4909 15.6682 13.3864 15.0682C14.4454 14.3591 15.15 13.3 15.3818 12.05H10V8.1818H19.4181C19.5364 8.8363 19.6 9.5182 19.6 10.2273C19.6 13.2727 18.5091 15.8363 16.6181 17.5773C14.9636 19.1046 12.7 20 10 20C6.09084 20 2.70909 17.7591 1.06364 14.4909C0.38638 13.1409 0 11.6136 0 10C0 8.3864 0.38638 6.85911 1.06364 5.50914Z" fill="white"/>
</svg>
