<svg xmlns="http://www.w3.org/2000/svg" width="512" height="512" viewBox="0 0 512 512" version="1.1"><path d="" stroke="none" fill="#080404" fill-rule="evenodd"/><path d="M 192 30.560 C 166.975 46.782, 146.392 60.379, 146.259 60.777 C 146.061 61.370, 235.386 119.749, 238.150 120.833 C 238.618 121.017, 239 114.165, 239 105.606 C 239 85.878, 238.217 86.690, 255.938 88.035 C 282.743 90.070, 304.976 96.263, 329 108.389 C 391.539 139.953, 432.511 199.383, 440.074 269.500 C 441.488 282.608, 440.740 306.337, 438.484 319.986 C 428.633 379.564, 395.092 431.899, 346 464.291 C 319.147 482.009, 290.591 492.444, 256.500 496.993 C 246.108 498.380, 216.693 498.386, 205.367 497.002 C 140.635 489.097, 83.349 454.585, 48.538 402.520 C 40.551 390.573, 39.886 391.325, 47.585 403.597 C 61.214 425.322, 75.070 441.773, 91.972 456.299 C 126.165 485.685, 167.091 503.821, 212.150 509.557 C 230.397 511.879, 262.302 511.156, 280 508.019 C 381.926 489.951, 458.205 407.728, 470.061 303.147 C 471.856 287.313, 470.783 251.415, 468.084 237 C 460.703 197.581, 446.703 164.928, 424.202 134.650 C 415.436 122.854, 396.005 102.619, 384.500 93.305 C 347.447 63.307, 299.906 43.531, 253.666 38.880 C 246.186 38.128, 241.312 37.169, 240.416 36.274 C 239.306 35.163, 239 31.199, 239 17.929 C 239 8.618, 238.662 1.015, 238.250 1.033 C 237.838 1.051, 217.025 14.338, 192 30.560 M 163.250 193.755 C 128.462 213.897, 100 230.659, 100 231.005 C 100 231.351, 108.986 236.685, 119.968 242.858 L 139.936 254.083 203.968 217.394 C 239.186 197.215, 268 180.372, 268 179.964 C 268 178.914, 229.597 156.986, 227.900 157.067 C 227.130 157.104, 198.038 173.614, 163.250 193.755 M 215.264 222.748 C 179.940 242.962, 151.038 259.725, 151.039 260 C 151.041 260.736, 176.791 275, 178.118 275 C 179.672 275, 306 202.751, 306 201.862 C 306 201.337, 283.988 188.104, 280.028 186.248 C 279.732 186.110, 250.589 202.535, 215.264 222.748 M 253.202 244.462 C 218.388 264.428, 189.690 280.977, 189.429 281.237 C 189.169 281.498, 197.997 286.781, 209.048 292.977 C 224.453 301.615, 229.564 304.040, 230.959 303.372 C 235.578 301.159, 356.979 231.441, 356.981 231 C 356.984 230.368, 319.107 208.560, 317.608 208.330 C 316.999 208.237, 288.016 224.496, 253.202 244.462 M 94.244 315.137 L 94.500 389.274 157.500 425.696 C 192.150 445.728, 221.287 462.557, 222.250 463.094 C 223.910 464.020, 224 460.183, 224 388.630 L 224 313.189 204.169 302.094 C 193.261 295.992, 184.036 291, 183.669 291 C 183.301 291, 183 300.360, 183 311.800 C 183 333.960, 182.781 335, 178.118 335 C 175.438 335, 138.312 314.769, 136.250 312.184 C 135.329 311.030, 135 304.374, 135 286.912 L 135 263.205 115.369 252.103 C 104.572 245.996, 95.344 241, 94.863 241 C 94.368 241, 94.099 273.219, 94.244 315.137 M 299.946 275.811 C 266.642 294.890, 238.179 311.298, 236.696 312.273 L 234 314.046 234 388.023 C 234 432.936, 234.365 462, 234.930 462 C 236.246 462, 361.343 389.824, 362.235 388.550 C 362.639 387.972, 362.976 354.538, 362.985 314.250 C 362.997 256.277, 362.739 241.013, 361.750 241.061 C 361.063 241.094, 333.251 256.731, 299.946 275.811 M 145 287.940 L 145 305.879 158.298 313.440 C 165.611 317.598, 171.911 321, 172.298 321 C 172.684 321, 173 312.788, 173 302.750 L 172.999 284.500 160.107 277.250 C 153.017 273.262, 146.717 270, 146.108 270 C 145.339 270, 145 275.483, 145 287.940" stroke="none" fill="#040404" fill-rule="evenodd"/></svg>