<svg width="14" height="14" viewBox="0 0 14 14" fill="none" xmlns="http://www.w3.org/2000/svg">
<path d="M13.9877 5.40714C13.9581 5.31642 13.8797 5.25026 13.7852 5.23648L9.25192 4.57767L7.2246 0.46991C7.1825 0.384207 7.0953 0.330078 7.00007 0.330078C6.90484 0.330078 6.81739 0.384207 6.77554 0.46991L4.74797 4.57792L0.214705 5.23673C0.120231 5.25051 0.0420452 5.31642 0.0122244 5.40739C-0.0170952 5.49785 0.00721249 5.59759 0.075625 5.664L3.35617 8.86159L2.58158 13.3768C2.56554 13.4708 2.60413 13.5658 2.68106 13.6219C2.7585 13.6785 2.86099 13.6858 2.94494 13.6409L7.00007 11.5094L11.0547 13.6409C11.0913 13.6602 11.1316 13.6698 11.1715 13.6698C11.2234 13.6698 11.275 13.6537 11.3188 13.6219C11.396 13.5658 11.4346 13.4708 11.4183 13.3768L10.644 8.86184L13.9245 5.664C13.9927 5.59709 14.0172 5.4976 13.9877 5.40714Z" fill="#FFAA2B"/>
</svg>
